{
  "source": "C:\\Users\\Peter\\Desktop\\stuff\\MIUN\\quantitative_research\\video_compression\\videos\\HEVC_CLASS_B\\ParkScene_1920x1080_24.y4m",
  "output": "C:\\Users\\Peter\\Desktop\\stuff\\MIUN\\quantitative_research\\video_compression\\compressed_videos\\HEVC_CLASS_B\\vp9\\12\\ParkScene_1920x1080_24_vp9.webm",
  "codec": "vp9",
  "ok": "Input #0, yuv4mpegpipe, from 'C:\\Users\\Peter\\Desktop\\stuff\\MIUN\\quantitative_research\\video_compression\\videos\\HEVC_CLASS_B\\ParkScene_1920x1080_24.y4m':\n  Duration: 00:00:10.00, start: 0.000000, bitrate: 597198 kb/s\n  Stream #0:0: Video: rawvideo (I420 / 0x30323449), yuv420p(progressive), 1920x1080, 24 fps, 24 tbr, 24 tbn\n[out#0/webm @ 000002439d026cc0] Codec AVOption b:a (set bitrate (in bits/s)) has not been used for any stream. The most likely reason is either wrong type (e.g. a video option with no video streams) or that it is a private option of some decoder which was not actually used for any stream.\nStream mapping:\n  Stream #0:0 -> #0:0 (rawvideo (native) -> vp9 (libvpx-vp9))\nPress [q] to stop, [?] for help\n[libvpx-vp9 @ 000002439d02d200] v1.15.2-100-g40561f514\nOutput #0, webm, to 'C:\\Users\\Peter\\Desktop\\stuff\\MIUN\\quantitative_research\\video_compression\\compressed_videos\\HEVC_CLASS_B\\vp9\\12\\ParkScene_1920x1080_24_vp9.webm':\n  Metadata:\n    encoder         : Lavf62.3.100\n  Stream #0:0: Video: vp9, yuv420p(tv, progressive), 1920x1080, q=2-31, 12000 kb/s, 24 fps, 1k tbn\n    Metadata:\n      encoder         : Lavc62.11.100 libvpx-vp9\n    Side data:\n      cpb: bitrate max/min/avg: 0/0/0 buffer size: 12000000 vbv_delay: N/A\nframe=    0 fps=0.0 q=0.0 size=       0KiB time=N/A bitrate=N/A speed=N/A elapsed=0:00:00.53    \nframe=    0 fps=0.0 q=0.0 size=       0KiB time=N/A bitrate=N/A speed=N/A elapsed=0:00:01.31    \nframe=    3 fps=1.5 q=36.0 size=       0KiB time=00:00:00.12 bitrate=  30.8kbits/s speed=0.0642x elapsed=0:00:01.94    \nframe=    5 fps=1.9 q=26.0 size=       0KiB time=00:00:00.20 bitrate=  18.5kbits/s speed=0.0795x elapsed=0:00:02.62    \nframe=    7 fps=2.2 q=26.0 size=       0KiB time=00:00:00.29 bitrate=  13.2kbits/s speed=0.0901x elapsed=0:00:03.23    \nframe=    9 fps=2.4 q=26.0 size=       0KiB time=00:00:00.37 bitrate=  10.3kbits/s speed=0.0985x elapsed=0:00:03.80    \nframe=   10 fps=2.3 q=26.0 size=       0KiB time=00:00:00.41 bitrate=   9.3kbits/s speed=0.095x elapsed=0:00:04.38    \nframe=   10 fps=2.0 q=26.0 size=       0KiB time=00:00:00.41 bitrate=   9.3kbits/s speed=0.0828x elapsed=0:00:05.02    \nframe=   12 fps=2.1 q=26.0 size=       0KiB time=00:00:00.50 bitrate=   7.7kbits/s speed=0.0887x elapsed=0:00:05.63    \nframe=   13 fps=2.1 q=24.0 size=       0KiB time=00:00:00.54 bitrate=   7.1kbits/s speed=0.0862x elapsed=0:00:06.28    \nframe=   15 fps=2.2 q=24.0 size=       0KiB time=00:00:00.62 bitrate=   6.2kbits/s speed=0.0902x elapsed=0:00:06.93    \nframe=   16 fps=2.1 q=25.0 size=       0KiB time=00:00:00.66 bitrate=   5.8kbits/s speed=0.0881x elapsed=0:00:07.57    \nframe=   18 fps=2.2 q=25.0 size=       0KiB time=00:00:00.75 bitrate=   5.1kbits/s speed=0.0917x elapsed=0:00:08.17    \nframe=   19 fps=2.2 q=25.0 size=       0KiB time=00:00:00.79 bitrate=   4.9kbits/s speed=0.0897x elapsed=0:00:08.82    \nframe=   20 fps=2.1 q=25.0 size=       0KiB time=00:00:00.83 bitrate=   4.6kbits/s speed=0.0882x elapsed=0:00:09.44    \nframe=   20 fps=2.0 q=25.0 size=       0KiB time=00:00:00.83 bitrate=   4.6kbits/s speed=0.0822x elapsed=0:00:10.13    \nframe=   22 fps=2.0 q=25.0 size=       0KiB time=00:00:00.91 bitrate=   4.2kbits/s speed=0.0851x elapsed=0:00:10.77    \nframe=   23 fps=2.0 q=23.0 size=       0KiB time=00:00:00.95 bitrate=   4.0kbits/s speed=0.0842x elapsed=0:00:11.38    \nframe=   25 fps=2.1 q=24.0 size=       0KiB time=00:00:01.04 bitrate=   3.7kbits/s speed=0.0868x elapsed=0:00:12.00    \nframe=   26 fps=2.1 q=25.0 size=       0KiB time=00:00:01.08 bitrate=   3.6kbits/s speed=0.0857x elapsed=0:00:12.63    \nframe=   28 fps=2.1 q=25.0 size=       0KiB time=00:00:01.12 bitrate=   3.4kbits/s speed=0.0849x elapsed=0:00:13.25    \nframe=   29 fps=2.1 q=25.0 size=       0KiB time=00:00:01.20 bitrate=   3.2kbits/s speed=0.0868x elapsed=0:00:13.92    \nframe=   30 fps=2.1 q=25.0 size=       0KiB time=00:00:01.25 bitrate=   3.1kbits/s speed=0.086x elapsed=0:00:14.53    \nframe=   30 fps=2.0 q=25.0 size=       0KiB time=00:00:01.25 bitrate=   3.1kbits/s speed=0.0826x elapsed=0:00:15.14    \nframe=   31 fps=2.0 q=9.0 size=       0KiB time=00:00:01.29 bitrate=   3.0kbits/s speed=0.0817x elapsed=0:00:15.81    \nframe=   32 fps=1.9 q=25.0 size=       0KiB time=00:00:01.33 bitrate=   2.9kbits/s speed=0.0809x elapsed=0:00:16.47    \nframe=   34 fps=2.0 q=24.0 size=       0KiB time=00:00:01.41 bitrate=   2.7kbits/s speed=0.0831x elapsed=0:00:17.04    \nframe=   35 fps=2.0 q=24.0 size=       0KiB time=00:00:01.45 bitrate=   2.6kbits/s speed=0.0827x elapsed=0:00:17.62    \nframe=   37 fps=2.0 q=25.0 size=       0KiB time=00:00:01.54 bitrate=   2.5kbits/s speed=0.0848x elapsed=0:00:18.17    \nframe=   39 fps=2.1 q=26.0 size=       0KiB time=00:00:01.62 bitrate=   2.4kbits/s speed=0.0866x elapsed=0:00:18.77    \nframe=   40 fps=2.1 q=26.0 size=       0KiB time=00:00:01.66 bitrate=   2.3kbits/s speed=0.0861x elapsed=0:00:19.36    \nframe=   40 fps=2.0 q=26.0 size=       0KiB time=00:00:01.66 bitrate=   2.3kbits/s speed=0.0833x elapsed=0:00:20.01    \nframe=   41 fps=2.0 q=9.0 size=       0KiB time=00:00:01.70 bitrate=   2.3kbits/s speed=0.0827x elapsed=0:00:20.65    \nframe=   43 fps=2.0 q=24.0 size=       0KiB time=00:00:01.79 bitrate=   2.2kbits/s speed=0.0844x elapsed=0:00:21.22    \nframe=   45 fps=2.1 q=25.0 size=       0KiB time=00:00:01.87 bitrate=   2.1kbits/s speed=0.0858x elapsed=0:00:21.84    \nframe=   46 fps=2.1 q=26.0 size=       0KiB time=00:00:01.91 bitrate=   2.0kbits/s speed=0.0855x elapsed=0:00:22.41    \nframe=   48 fps=2.1 q=26.0 size=       0KiB time=00:00:02.00 bitrate=   1.9kbits/s speed=0.0868x elapsed=0:00:23.03    \nframe=   49 fps=2.1 q=27.0 size=       0KiB time=00:00:02.04 bitrate=   1.9kbits/s speed=0.0862x elapsed=0:00:23.68    \nframe=   50 fps=2.1 q=27.0 size=       0KiB time=00:00:02.08 bitrate=   1.9kbits/s speed=0.0858x elapsed=0:00:24.28    \nframe=   50 fps=2.0 q=27.0 size=       0KiB time=00:00:02.08 bitrate=   1.9kbits/s speed=0.0838x elapsed=0:00:24.87    \nframe=   52 fps=2.0 q=27.0 size=       0KiB time=00:00:02.16 bitrate=   1.8kbits/s speed=0.0851x elapsed=0:00:25.46    \nframe=   54 fps=2.1 q=26.0 size=       0KiB time=00:00:02.20 bitrate=   1.7kbits/s speed=0.0848x elapsed=0:00:26.04    \nframe=   55 fps=2.1 q=26.0 size=       0KiB time=00:00:02.29 bitrate=   1.7kbits/s speed=0.086x elapsed=0:00:26.63    \nframe=   57 fps=2.1 q=27.0 size=       0KiB time=00:00:02.37 bitrate=   1.6kbits/s speed=0.0872x elapsed=0:00:27.22    \nframe=   58 fps=2.1 q=28.0 size=       0KiB time=00:00:02.41 bitrate=   1.6kbits/s speed=0.0869x elapsed=0:00:27.82    \nframe=   60 fps=2.1 q=28.0 size=       0KiB time=00:00:02.50 bitrate=   1.5kbits/s speed=0.0881x elapsed=0:00:28.38    \nframe=   60 fps=2.1 q=28.0 size=       0KiB time=00:00:02.50 bitrate=   1.5kbits/s speed=0.0863x elapsed=0:00:28.98    \nframe=   62 fps=2.1 q=28.0 size=       0KiB time=00:00:02.58 bitrate=   1.5kbits/s speed=0.0874x elapsed=0:00:29.55    \nframe=   64 fps=2.1 q=26.0 size=       0KiB time=00:00:02.66 bitrate=   1.4kbits/s speed=0.0886x elapsed=0:00:30.08    \nframe=   66 fps=2.2 q=27.0 size=       0KiB time=00:00:02.75 bitrate=   1.4kbits/s speed=0.0897x elapsed=0:00:30.66    \nframe=   67 fps=2.1 q=27.0 size=       0KiB time=00:00:02.79 bitrate=   1.4kbits/s speed=0.0894x elapsed=0:00:31.21    \nframe=   68 fps=2.1 q=27.0 size=       0KiB time=00:00:02.83 bitrate=   1.4kbits/s speed=0.0892x elapsed=0:00:31.76    \nframe=   70 fps=2.2 q=27.0 size=       0KiB time=00:00:02.87 bitrate=   1.3kbits/s speed=0.089x elapsed=0:00:32.31    \nframe=   70 fps=2.1 q=27.0 size=       0KiB time=00:00:02.91 bitrate=   1.3kbits/s speed=0.0886x elapsed=0:00:32.90    \nframe=   70 fps=2.1 q=27.0 size=       0KiB time=00:00:02.91 bitrate=   1.3kbits/s speed=0.0871x elapsed=0:00:33.47    \nframe=   73 fps=2.1 q=25.0 size=       0KiB time=00:00:03.00 bitrate=   1.3kbits/s speed=0.0882x elapsed=0:00:34.02    \nframe=   75 fps=2.2 q=26.0 size=       0KiB time=00:00:03.12 bitrate=   1.2kbits/s speed=0.0904x elapsed=0:00:34.56    \nframe=   77 fps=2.2 q=26.0 size=       0KiB time=00:00:03.20 bitrate=   1.2kbits/s speed=0.0913x elapsed=0:00:35.14    \nframe=   79 fps=2.2 q=27.0 size=       0KiB time=00:00:03.29 bitrate=   1.2kbits/s speed=0.0922x elapsed=0:00:35.71    \nframe=   80 fps=2.2 q=27.0 size=       0KiB time=00:00:03.33 bitrate=   1.2kbits/s speed=0.0919x elapsed=0:00:36.25    \nframe=   82 fps=2.2 q=27.0 size=       0KiB time=00:00:03.41 bitrate=   1.1kbits/s speed=0.0929x elapsed=0:00:36.79    \nframe=   84 fps=2.2 q=25.0 size=    5120KiB time=00:00:03.45 bitrate=12128.1kbits/s speed=0.0925x elapsed=0:00:37.37    \nframe=   85 fps=2.2 q=25.0 size=    5120KiB time=00:00:03.54 bitrate=11842.7kbits/s speed=0.0934x elapsed=0:00:37.90    \nframe=   88 fps=2.3 q=26.0 size=    5120KiB time=00:00:03.66 bitrate=11439.0kbits/s speed=0.0954x elapsed=0:00:38.43    \nframe=   90 fps=2.3 q=27.0 size=    5120KiB time=00:00:03.75 bitrate=11184.8kbits/s speed=0.0962x elapsed=0:00:38.98    \nframe=   90 fps=2.3 q=27.0 size=    5120KiB time=00:00:03.75 bitrate=11184.8kbits/s speed=0.0948x elapsed=0:00:39.56    \nframe=   91 fps=2.3 q=10.0 size=    5120KiB time=00:00:03.79 bitrate=11061.9kbits/s speed=0.0945x elapsed=0:00:40.11    \nframe=   93 fps=2.3 q=24.0 size=    5120KiB time=00:00:03.87 bitrate=10824.0kbits/s speed=0.0953x elapsed=0:00:40.64    \nframe=   95 fps=2.3 q=25.0 size=    5120KiB time=00:00:03.95 bitrate=10596.1kbits/s speed=0.0961x elapsed=0:00:41.19    \nframe=   97 fps=2.3 q=26.0 size=    5120KiB time=00:00:04.04 bitrate=10377.7kbits/s speed=0.0969x elapsed=0:00:41.71    \nframe=  100 fps=2.4 q=26.0 size=    5120KiB time=00:00:04.16 bitrate=10066.3kbits/s speed=0.0987x elapsed=0:00:42.23    \nframe=  100 fps=2.3 q=26.0 size=    5120KiB time=00:00:04.16 bitrate=10066.3kbits/s speed=0.0974x elapsed=0:00:42.79    \nframe=  101 fps=2.3 q=9.0 size=    5120KiB time=00:00:04.20 bitrate=9966.7kbits/s speed=0.097x elapsed=0:00:43.37    \nframe=  103 fps=2.3 q=24.0 size=    5120KiB time=00:00:04.29 bitrate=9773.1kbits/s speed=0.0977x elapsed=0:00:43.90    \nframe=  105 fps=2.4 q=24.0 size=    5120KiB time=00:00:04.37 bitrate=9587.0kbits/s speed=0.0984x elapsed=0:00:44.46    \nframe=  108 fps=2.4 q=25.0 size=    5120KiB time=00:00:04.50 bitrate=9320.7kbits/s speed= 0.1x elapsed=0:00:45.00    \nframe=  110 fps=2.4 q=25.0 size=    5120KiB time=00:00:04.58 bitrate=9151.2kbits/s speed=0.101x elapsed=0:00:45.54    \nframe=  110 fps=2.4 q=25.0 size=    5120KiB time=00:00:04.58 bitrate=9151.2kbits/s speed=0.0994x elapsed=0:00:46.11    \nframe=  111 fps=2.4 q=8.0 size=    5120KiB time=00:00:04.62 bitrate=9068.8kbits/s speed=0.099x elapsed=0:00:46.72    \nframe=  114 fps=2.4 q=24.0 size=    5120KiB time=00:00:04.75 bitrate=8830.1kbits/s speed=0.101x elapsed=0:00:47.24    \nframe=  116 fps=2.4 q=25.0 size=    5120KiB time=00:00:04.83 bitrate=8677.9kbits/s speed=0.101x elapsed=0:00:47.77    \nframe=  118 fps=2.4 q=25.0 size=    5120KiB time=00:00:04.91 bitrate=8530.8kbits/s speed=0.102x elapsed=0:00:48.29    \nframe=  120 fps=2.5 q=25.0 size=    5120KiB time=00:00:04.95 bitrate=8459.1kbits/s speed=0.102x elapsed=0:00:48.84    \nframe=  120 fps=2.4 q=25.0 size=    5120KiB time=00:00:05.00 bitrate=8388.6kbits/s speed=0.101x elapsed=0:00:49.40    \nframe=  122 fps=2.4 q=27.0 size=    5120KiB time=00:00:05.08 bitrate=8251.1kbits/s speed=0.102x elapsed=0:00:49.95    \nframe=  125 fps=2.5 q=25.0 size=    5120KiB time=00:00:05.20 bitrate=8053.1kbits/s speed=0.103x elapsed=0:00:50.46    \nframe=  127 fps=2.5 q=25.0 size=    5120KiB time=00:00:05.29 bitrate=7926.2kbits/s speed=0.104x elapsed=0:00:51.02    \nframe=  128 fps=2.5 q=25.0 size=    5120KiB time=00:00:05.33 bitrate=7864.3kbits/s speed=0.103x elapsed=0:00:51.57    \nframe=  128 fps=2.5 q=25.0 size=    5120KiB time=00:00:05.33 bitrate=7864.3kbits/s speed=0.102x elapsed=0:00:52.15    \nframe=  131 fps=2.5 q=20.0 size=    7680KiB time=00:00:05.45 bitrate=11526.3kbits/s speed=0.104x elapsed=0:00:52.72    \nframe=  134 fps=2.5 q=23.0 size=    7680KiB time=00:00:05.58 bitrate=11268.3kbits/s speed=0.105x elapsed=0:00:53.26    \nframe=  136 fps=2.5 q=24.0 size=    7680KiB time=00:00:05.66 bitrate=11102.6kbits/s speed=0.105x elapsed=0:00:53.84    \nframe=  138 fps=2.5 q=24.0 size=    7680KiB time=00:00:05.70 bitrate=11021.5kbits/s speed=0.105x elapsed=0:00:54.39    \nframe=  138 fps=2.5 q=24.0 size=    7680KiB time=00:00:05.75 bitrate=10941.7kbits/s speed=0.105x elapsed=0:00:54.95    \nframe=  140 fps=2.5 q=25.0 size=    7680KiB time=00:00:05.83 bitrate=10785.4kbits/s speed=0.105x elapsed=0:00:55.53    \nframe=  142 fps=2.5 q=23.0 size=    7680KiB time=00:00:05.91 bitrate=10633.4kbits/s speed=0.105x elapsed=0:00:56.09    \nframe=  144 fps=2.5 q=23.0 size=    7680KiB time=00:00:06.00 bitrate=10485.8kbits/s speed=0.106x elapsed=0:00:56.64    \nframe=  146 fps=2.5 q=24.0 size=    7680KiB time=00:00:06.08 bitrate=10342.1kbits/s speed=0.106x elapsed=0:00:57.28    \nframe=  147 fps=2.5 q=24.0 size=    7680KiB time=00:00:06.12 bitrate=10271.8kbits/s speed=0.106x elapsed=0:00:57.87    \nframe=  148 fps=2.5 q=25.0 size=    7680KiB time=00:00:06.16 bitrate=10202.4kbits/s speed=0.106x elapsed=0:00:58.40    \nframe=  150 fps=2.5 q=25.0 size=    7680KiB time=00:00:06.20 bitrate=10133.9kbits/s speed=0.105x elapsed=0:00:58.95    \nframe=  151 fps=2.5 q=21.0 size=    7680KiB time=00:00:06.29 bitrate=9999.7kbits/s speed=0.106x elapsed=0:00:59.52    \nframe=  153 fps=2.5 q=23.0 size=    7680KiB time=00:00:06.37 bitrate=9869.0kbits/s speed=0.106x elapsed=0:01:00.12    \nframe=  155 fps=2.6 q=24.0 size=    7680KiB time=00:00:06.41 bitrate=9804.9kbits/s speed=0.106x elapsed=0:01:00.69    \nframe=  157 fps=2.6 q=24.0 size=    7680KiB time=00:00:06.54 bitrate=9617.5kbits/s speed=0.107x elapsed=0:01:01.29    \nframe=  158 fps=2.6 q=25.0 size=    7680KiB time=00:00:06.58 bitrate=9556.6kbits/s speed=0.106x elapsed=0:01:01.89    \nframe=  158 fps=2.5 q=25.0 size=    7680KiB time=00:00:06.58 bitrate=9556.6kbits/s speed=0.105x elapsed=0:01:02.51    \nframe=  160 fps=2.5 q=25.0 size=    7680KiB time=00:00:06.66 bitrate=9437.2kbits/s speed=0.106x elapsed=0:01:03.07    \nframe=  161 fps=2.5 q=21.0 size=    7680KiB time=00:00:06.70 bitrate=9378.6kbits/s speed=0.105x elapsed=0:01:03.70    \nframe=  163 fps=2.5 q=23.0 size=    7680KiB time=00:00:06.79 bitrate=9263.5kbits/s speed=0.106x elapsed=0:01:04.25    \nframe=  164 fps=2.5 q=23.0 size=    7680KiB time=00:00:06.83 bitrate=9207.0kbits/s speed=0.105x elapsed=0:01:04.87    \nframe=  166 fps=2.5 q=24.0 size=    7680KiB time=00:00:06.91 bitrate=9096.1kbits/s speed=0.106x elapsed=0:01:05.43    \nframe=  168 fps=2.5 q=25.0 size=    7680KiB time=00:00:07.00 bitrate=8987.8kbits/s speed=0.106x elapsed=0:01:05.97    \nframe=  168 fps=2.5 q=25.0 size=    7680KiB time=00:00:07.00 bitrate=8987.8kbits/s speed=0.105x elapsed=0:01:06.51    \nframe=  170 fps=2.5 q=25.0 size=    7680KiB time=00:00:07.08 bitrate=8882.1kbits/s speed=0.106x elapsed=0:01:07.08    \nframe=  172 fps=2.5 q=24.0 size=    7680KiB time=00:00:07.16 bitrate=8778.8kbits/s speed=0.106x elapsed=0:01:07.67    \nframe=  174 fps=2.6 q=25.0 size=    7680KiB time=00:00:07.25 bitrate=8677.9kbits/s speed=0.106x elapsed=0:01:08.18    \nframe=  176 fps=2.6 q=25.0 size=    7680KiB time=00:00:07.33 bitrate=8579.3kbits/s speed=0.107x elapsed=0:01:08.74    \nframe=  178 fps=2.6 q=25.0 size=    7680KiB time=00:00:07.41 bitrate=8482.9kbits/s speed=0.107x elapsed=0:01:09.26    \nframe=  178 fps=2.5 q=25.0 size=    7680KiB time=00:00:07.41 bitrate=8482.9kbits/s speed=0.106x elapsed=0:01:09.85    \nframe=  180 fps=2.6 q=25.0 size=    7680KiB time=00:00:07.50 bitrate=8388.6kbits/s speed=0.106x elapsed=0:01:10.43    \nframe=  182 fps=2.6 q=23.0 size=    7680KiB time=00:00:07.58 bitrate=8296.4kbits/s speed=0.107x elapsed=0:01:10.98    \nframe=  184 fps=2.6 q=24.0 size=    7680KiB time=00:00:07.66 bitrate=8206.2kbits/s speed=0.107x elapsed=0:01:11.55    \nframe=  186 fps=2.6 q=25.0 size=    7680KiB time=00:00:07.75 bitrate=8118.0kbits/s speed=0.107x elapsed=0:01:12.14    \nframe=  188 fps=2.6 q=25.0 size=    7680KiB time=00:00:07.83 bitrate=8031.6kbits/s speed=0.108x elapsed=0:01:12.74    \nframe=  188 fps=2.6 q=25.0 size=    7680KiB time=00:00:07.83 bitrate=8031.6kbits/s speed=0.107x elapsed=0:01:13.30    \nframe=  190 fps=2.6 q=24.0 size=    7680KiB time=00:00:07.91 bitrate=7947.1kbits/s speed=0.107x elapsed=0:01:13.84    \nframe=  192 fps=2.6 q=23.0 size=    7680KiB time=00:00:08.00 bitrate=7864.3kbits/s speed=0.108x elapsed=0:01:14.37    \nframe=  194 fps=2.6 q=24.0 size=    7680KiB time=00:00:08.08 bitrate=7783.2kbits/s speed=0.108x elapsed=0:01:14.91    \nframe=  196 fps=2.6 q=24.0 size=    7680KiB time=00:00:08.16 bitrate=7703.8kbits/s speed=0.108x elapsed=0:01:15.45    \nframe=  198 fps=2.6 q=25.0 size=    7680KiB time=00:00:08.25 bitrate=7626.0kbits/s speed=0.109x elapsed=0:01:15.98    \nframe=  199 fps=2.6 q=9.0 size=    7680KiB time=00:00:08.29 bitrate=7587.7kbits/s speed=0.108x elapsed=0:01:16.52    \nframe=  202 fps=2.6 q=23.0 size=    7680KiB time=00:00:08.41 bitrate=7475.0kbits/s speed=0.109x elapsed=0:01:17.05    \nframe=  204 fps=2.6 q=24.0 size=    7680KiB time=00:00:08.50 bitrate=7401.7kbits/s speed=0.11x elapsed=0:01:17.58    \nframe=  207 fps=2.6 q=25.0 size=    7680KiB time=00:00:08.62 bitrate=7294.4kbits/s speed=0.11x elapsed=0:01:18.11    \nframe=  208 fps=2.6 q=25.0 size=   12800KiB time=00:00:08.66 bitrate=12099.0kbits/s speed=0.11x elapsed=0:01:18.67    \nframe=  211 fps=2.7 q=25.0 size=   12800KiB time=00:00:08.79 bitrate=11926.9kbits/s speed=0.111x elapsed=0:01:19.23    \nframe=  214 fps=2.7 q=25.0 size=   12800KiB time=00:00:08.91 bitrate=11759.7kbits/s speed=0.112x elapsed=0:01:19.79    \nframe=  216 fps=2.7 q=25.0 size=   12800KiB time=00:00:09.00 bitrate=11650.8kbits/s speed=0.112x elapsed=0:01:20.32    \nframe=  216 fps=2.7 q=25.0 size=   12800KiB time=00:00:09.00 bitrate=11650.8kbits/s speed=0.111x elapsed=0:01:20.90    \nframe=  216 fps=2.7 q=25.0 size=   12800KiB time=00:00:09.00 bitrate=11650.8kbits/s speed=0.111x elapsed=0:01:21.43    \nframe=  216 fps=2.6 q=25.0 size=   12800KiB time=00:00:09.00 bitrate=11650.8kbits/s speed=0.11x elapsed=0:01:21.94    \nframe=  216 fps=2.6 q=25.0 size=   12800KiB time=00:00:09.00 bitrate=11650.8kbits/s speed=0.109x elapsed=0:01:22.49    \nframe=  216 fps=2.6 q=25.0 size=   12800KiB time=00:00:09.00 bitrate=11650.8kbits/s speed=0.108x elapsed=0:01:23.02    \nframe=  216 fps=2.6 q=25.0 size=   12800KiB time=00:00:09.00 bitrate=11650.8kbits/s speed=0.108x elapsed=0:01:23.55    \nframe=  216 fps=2.6 q=25.0 size=   12800KiB time=00:00:09.00 bitrate=11650.8kbits/s speed=0.107x elapsed=0:01:24.06    \nframe=  216 fps=2.6 q=25.0 size=   12800KiB time=00:00:09.00 bitrate=11650.8kbits/s speed=0.106x elapsed=0:01:24.58    \nframe=  216 fps=2.5 q=25.0 size=   12800KiB time=00:00:09.00 bitrate=11650.8kbits/s speed=0.106x elapsed=0:01:25.12    \nframe=  216 fps=2.5 q=25.0 size=   12800KiB time=00:00:09.00 bitrate=11650.8kbits/s speed=0.105x elapsed=0:01:25.67    \n[out#0/webm @ 000002439d026cc0] video:15104KiB audio:0KiB subtitle:0KiB other streams:0KiB global headers:0KiB muxing overhead: 0.016073%\nframe=  240 fps=2.8 q=21.0 Lsize=   15107KiB time=00:00:10.00 bitrate=12375.5kbits/s speed=0.116x elapsed=0:01:26.02    \n",
  "seconds": 86.25420618057251,
  "probe_out": {}
}